%TF.GenerationSoftware,KiCad,Pcbnew,(6.0.8)*%
%TF.CreationDate,2022-12-22T05:05:52-05:00*%
%TF.ProjectId,2-input-or-gate,322d696e-7075-4742-9d6f-722d67617465,rev?*%
%TF.SameCoordinates,Original*%
%TF.FileFunction,Drillmap*%
%TF.FilePolarity,Positive*%
%FSLAX45Y45*%
G04 Gerber Fmt 4.5, Leading zero omitted, Abs format (unit mm)*
G04 Created by KiCad (PCBNEW (6.0.8)) date 2022-12-22 05:05:52*
%MOMM*%
%LPD*%
G01*
G04 APERTURE LIST*
%ADD10C,0.100000*%
%ADD11C,0.200000*%
%ADD12C,0.040000*%
G04 APERTURE END LIST*
D10*
X14552000Y-10246000D02*
X14220300Y-10245000D01*
X14859000Y-9321800D02*
X14859000Y-9169400D01*
X14630400Y-9321800D02*
X14859000Y-9321800D01*
X14630400Y-9136000D02*
X14630400Y-9321800D01*
X15478760Y-10007600D02*
X14554200Y-10007600D01*
X14220000Y-9136000D02*
X14630400Y-9136000D01*
X14554200Y-10007600D02*
X14555000Y-10242000D01*
X14430000Y-10150000D02*
X14430000Y-9230000D01*
X14430000Y-9230000D02*
X14220000Y-9230000D01*
X14219700Y-10150000D02*
X14430000Y-10150000D01*
X14859000Y-9169400D02*
X15478760Y-9169400D01*
X14220300Y-10245000D02*
X14219700Y-10150000D01*
X14220000Y-9230000D02*
X14220000Y-9136000D01*
X15478760Y-10007600D02*
X15478760Y-9169400D01*
D11*
D12*
X15347000Y-9441000D02*
X15387000Y-9481000D01*
X15387000Y-9441000D02*
X15347000Y-9481000D01*
D11*
X14472319Y-10561476D02*
X14472319Y-10361476D01*
X14519938Y-10361476D01*
X14548509Y-10371000D01*
X14567557Y-10390048D01*
X14577081Y-10409095D01*
X14586605Y-10447190D01*
X14586605Y-10475762D01*
X14577081Y-10513857D01*
X14567557Y-10532905D01*
X14548509Y-10551952D01*
X14519938Y-10561476D01*
X14472319Y-10561476D01*
X14672319Y-10561476D02*
X14672319Y-10428143D01*
X14672319Y-10466238D02*
X14681843Y-10447190D01*
X14691367Y-10437667D01*
X14710414Y-10428143D01*
X14729462Y-10428143D01*
X14796128Y-10561476D02*
X14796128Y-10428143D01*
X14796128Y-10361476D02*
X14786605Y-10371000D01*
X14796128Y-10380524D01*
X14805652Y-10371000D01*
X14796128Y-10361476D01*
X14796128Y-10380524D01*
X14919938Y-10561476D02*
X14900890Y-10551952D01*
X14891367Y-10532905D01*
X14891367Y-10361476D01*
X15024700Y-10561476D02*
X15005652Y-10551952D01*
X14996128Y-10532905D01*
X14996128Y-10361476D01*
X15253271Y-10561476D02*
X15253271Y-10361476D01*
X15319938Y-10504333D01*
X15386605Y-10361476D01*
X15386605Y-10561476D01*
X15567557Y-10561476D02*
X15567557Y-10456714D01*
X15558033Y-10437667D01*
X15538986Y-10428143D01*
X15500890Y-10428143D01*
X15481843Y-10437667D01*
X15567557Y-10551952D02*
X15548509Y-10561476D01*
X15500890Y-10561476D01*
X15481843Y-10551952D01*
X15472319Y-10532905D01*
X15472319Y-10513857D01*
X15481843Y-10494810D01*
X15500890Y-10485286D01*
X15548509Y-10485286D01*
X15567557Y-10475762D01*
X15662795Y-10428143D02*
X15662795Y-10628143D01*
X15662795Y-10437667D02*
X15681843Y-10428143D01*
X15719938Y-10428143D01*
X15738986Y-10437667D01*
X15748509Y-10447190D01*
X15758033Y-10466238D01*
X15758033Y-10523381D01*
X15748509Y-10542429D01*
X15738986Y-10551952D01*
X15719938Y-10561476D01*
X15681843Y-10561476D01*
X15662795Y-10551952D01*
X15843748Y-10542429D02*
X15853271Y-10551952D01*
X15843748Y-10561476D01*
X15834224Y-10551952D01*
X15843748Y-10542429D01*
X15843748Y-10561476D01*
X15843748Y-10437667D02*
X15853271Y-10447190D01*
X15843748Y-10456714D01*
X15834224Y-10447190D01*
X15843748Y-10437667D01*
X15843748Y-10456714D01*
D12*
X14174700Y-10871000D02*
X14214700Y-10911000D01*
X14214700Y-10871000D02*
X14174700Y-10911000D01*
D11*
X14510414Y-10781476D02*
X14529462Y-10781476D01*
X14548509Y-10791000D01*
X14558033Y-10800524D01*
X14567557Y-10819571D01*
X14577081Y-10857667D01*
X14577081Y-10905286D01*
X14567557Y-10943381D01*
X14558033Y-10962429D01*
X14548509Y-10971952D01*
X14529462Y-10981476D01*
X14510414Y-10981476D01*
X14491367Y-10971952D01*
X14481843Y-10962429D01*
X14472319Y-10943381D01*
X14462795Y-10905286D01*
X14462795Y-10857667D01*
X14472319Y-10819571D01*
X14481843Y-10800524D01*
X14491367Y-10791000D01*
X14510414Y-10781476D01*
X14662795Y-10962429D02*
X14672319Y-10971952D01*
X14662795Y-10981476D01*
X14653271Y-10971952D01*
X14662795Y-10962429D01*
X14662795Y-10981476D01*
X14843748Y-10848143D02*
X14843748Y-10981476D01*
X14796128Y-10771952D02*
X14748509Y-10914810D01*
X14872319Y-10914810D01*
X14986605Y-10781476D02*
X15005652Y-10781476D01*
X15024700Y-10791000D01*
X15034224Y-10800524D01*
X15043748Y-10819571D01*
X15053271Y-10857667D01*
X15053271Y-10905286D01*
X15043748Y-10943381D01*
X15034224Y-10962429D01*
X15024700Y-10971952D01*
X15005652Y-10981476D01*
X14986605Y-10981476D01*
X14967557Y-10971952D01*
X14958033Y-10962429D01*
X14948509Y-10943381D01*
X14938986Y-10905286D01*
X14938986Y-10857667D01*
X14948509Y-10819571D01*
X14958033Y-10800524D01*
X14967557Y-10791000D01*
X14986605Y-10781476D01*
X15177081Y-10781476D02*
X15196128Y-10781476D01*
X15215176Y-10791000D01*
X15224700Y-10800524D01*
X15234224Y-10819571D01*
X15243748Y-10857667D01*
X15243748Y-10905286D01*
X15234224Y-10943381D01*
X15224700Y-10962429D01*
X15215176Y-10971952D01*
X15196128Y-10981476D01*
X15177081Y-10981476D01*
X15158033Y-10971952D01*
X15148509Y-10962429D01*
X15138986Y-10943381D01*
X15129462Y-10905286D01*
X15129462Y-10857667D01*
X15138986Y-10819571D01*
X15148509Y-10800524D01*
X15158033Y-10791000D01*
X15177081Y-10781476D01*
X15329462Y-10981476D02*
X15329462Y-10848143D01*
X15329462Y-10867190D02*
X15338986Y-10857667D01*
X15358033Y-10848143D01*
X15386605Y-10848143D01*
X15405652Y-10857667D01*
X15415176Y-10876714D01*
X15415176Y-10981476D01*
X15415176Y-10876714D02*
X15424700Y-10857667D01*
X15443748Y-10848143D01*
X15472319Y-10848143D01*
X15491367Y-10857667D01*
X15500890Y-10876714D01*
X15500890Y-10981476D01*
X15596128Y-10981476D02*
X15596128Y-10848143D01*
X15596128Y-10867190D02*
X15605652Y-10857667D01*
X15624700Y-10848143D01*
X15653271Y-10848143D01*
X15672319Y-10857667D01*
X15681843Y-10876714D01*
X15681843Y-10981476D01*
X15681843Y-10876714D02*
X15691367Y-10857667D01*
X15710414Y-10848143D01*
X15738986Y-10848143D01*
X15758033Y-10857667D01*
X15767557Y-10876714D01*
X15767557Y-10981476D01*
X16158033Y-10771952D02*
X15986605Y-11029095D01*
X16415176Y-10781476D02*
X16434224Y-10781476D01*
X16453271Y-10791000D01*
X16462795Y-10800524D01*
X16472319Y-10819571D01*
X16481843Y-10857667D01*
X16481843Y-10905286D01*
X16472319Y-10943381D01*
X16462795Y-10962429D01*
X16453271Y-10971952D01*
X16434224Y-10981476D01*
X16415176Y-10981476D01*
X16396128Y-10971952D01*
X16386605Y-10962429D01*
X16377081Y-10943381D01*
X16367557Y-10905286D01*
X16367557Y-10857667D01*
X16377081Y-10819571D01*
X16386605Y-10800524D01*
X16396128Y-10791000D01*
X16415176Y-10781476D01*
X16567557Y-10962429D02*
X16577081Y-10971952D01*
X16567557Y-10981476D01*
X16558033Y-10971952D01*
X16567557Y-10962429D01*
X16567557Y-10981476D01*
X16700890Y-10781476D02*
X16719938Y-10781476D01*
X16738986Y-10791000D01*
X16748509Y-10800524D01*
X16758033Y-10819571D01*
X16767557Y-10857667D01*
X16767557Y-10905286D01*
X16758033Y-10943381D01*
X16748509Y-10962429D01*
X16738986Y-10971952D01*
X16719938Y-10981476D01*
X16700890Y-10981476D01*
X16681843Y-10971952D01*
X16672319Y-10962429D01*
X16662795Y-10943381D01*
X16653271Y-10905286D01*
X16653271Y-10857667D01*
X16662795Y-10819571D01*
X16672319Y-10800524D01*
X16681843Y-10791000D01*
X16700890Y-10781476D01*
X16958033Y-10981476D02*
X16843748Y-10981476D01*
X16900890Y-10981476D02*
X16900890Y-10781476D01*
X16881843Y-10810048D01*
X16862795Y-10829095D01*
X16843748Y-10838619D01*
X17138986Y-10781476D02*
X17043748Y-10781476D01*
X17034224Y-10876714D01*
X17043748Y-10867190D01*
X17062795Y-10857667D01*
X17110414Y-10857667D01*
X17129462Y-10867190D01*
X17138986Y-10876714D01*
X17148510Y-10895762D01*
X17148510Y-10943381D01*
X17138986Y-10962429D01*
X17129462Y-10971952D01*
X17110414Y-10981476D01*
X17062795Y-10981476D01*
X17043748Y-10971952D01*
X17034224Y-10962429D01*
X17215176Y-10781476D02*
X17348510Y-10781476D01*
X17262795Y-10981476D01*
X17415176Y-10781476D02*
X17415176Y-10819571D01*
X17491367Y-10781476D02*
X17491367Y-10819571D01*
X17786605Y-11057667D02*
X17777081Y-11048143D01*
X17758033Y-11019571D01*
X17748510Y-11000524D01*
X17738986Y-10971952D01*
X17729462Y-10924333D01*
X17729462Y-10886238D01*
X17738986Y-10838619D01*
X17748510Y-10810048D01*
X17758033Y-10791000D01*
X17777081Y-10762429D01*
X17786605Y-10752905D01*
X17967557Y-10981476D02*
X17853271Y-10981476D01*
X17910414Y-10981476D02*
X17910414Y-10781476D01*
X17891367Y-10810048D01*
X17872319Y-10829095D01*
X17853271Y-10838619D01*
X18205652Y-10981476D02*
X18205652Y-10781476D01*
X18291367Y-10981476D02*
X18291367Y-10876714D01*
X18281843Y-10857667D01*
X18262795Y-10848143D01*
X18234224Y-10848143D01*
X18215176Y-10857667D01*
X18205652Y-10867190D01*
X18415176Y-10981476D02*
X18396129Y-10971952D01*
X18386605Y-10962429D01*
X18377081Y-10943381D01*
X18377081Y-10886238D01*
X18386605Y-10867190D01*
X18396129Y-10857667D01*
X18415176Y-10848143D01*
X18443748Y-10848143D01*
X18462795Y-10857667D01*
X18472319Y-10867190D01*
X18481843Y-10886238D01*
X18481843Y-10943381D01*
X18472319Y-10962429D01*
X18462795Y-10971952D01*
X18443748Y-10981476D01*
X18415176Y-10981476D01*
X18596129Y-10981476D02*
X18577081Y-10971952D01*
X18567557Y-10952905D01*
X18567557Y-10781476D01*
X18748510Y-10971952D02*
X18729462Y-10981476D01*
X18691367Y-10981476D01*
X18672319Y-10971952D01*
X18662795Y-10952905D01*
X18662795Y-10876714D01*
X18672319Y-10857667D01*
X18691367Y-10848143D01*
X18729462Y-10848143D01*
X18748510Y-10857667D01*
X18758033Y-10876714D01*
X18758033Y-10895762D01*
X18662795Y-10914810D01*
X18824700Y-11057667D02*
X18834224Y-11048143D01*
X18853271Y-11019571D01*
X18862795Y-11000524D01*
X18872319Y-10971952D01*
X18881843Y-10924333D01*
X18881843Y-10886238D01*
X18872319Y-10838619D01*
X18862795Y-10810048D01*
X18853271Y-10791000D01*
X18834224Y-10762429D01*
X18824700Y-10752905D01*
M02*
