%TF.GenerationSoftware,KiCad,Pcbnew,(6.0.8)*%
%TF.CreationDate,2022-12-22T05:05:54-05:00*%
%TF.ProjectId,2-input-or-gate,322d696e-7075-4742-9d6f-722d67617465,rev?*%
%TF.SameCoordinates,Original*%
%TF.FileFunction,Copper,L1,Top*%
%TF.FilePolarity,Positive*%
%FSLAX46Y46*%
G04 Gerber Fmt 4.6, Leading zero omitted, Abs format (unit mm)*
G04 Created by KiCad (PCBNEW (6.0.8)) date 2022-12-22 05:05:54*
%MOMM*%
%LPD*%
G01*
G04 APERTURE LIST*
G04 Aperture macros list*
%AMRoundRect*
0 Rectangle with rounded corners*
0 $1 Rounding radius*
0 $2 $3 $4 $5 $6 $7 $8 $9 X,Y pos of 4 corners*
0 Add a 4 corners polygon primitive as box body*
4,1,4,$2,$3,$4,$5,$6,$7,$8,$9,$2,$3,0*
0 Add four circle primitives for the rounded corners*
1,1,$1+$1,$2,$3*
1,1,$1+$1,$4,$5*
1,1,$1+$1,$6,$7*
1,1,$1+$1,$8,$9*
0 Add four rect primitives between the rounded corners*
20,1,$1+$1,$2,$3,$4,$5,0*
20,1,$1+$1,$4,$5,$6,$7,0*
20,1,$1+$1,$6,$7,$8,$9,0*
20,1,$1+$1,$8,$9,$2,$3,0*%
G04 Aperture macros list end*
%TA.AperFunction,NonConductor*%
%ADD10C,0.010000*%
%TD*%
%TA.AperFunction,SMDPad,CuDef*%
%ADD11RoundRect,0.250000X-0.250000X0.639000X-0.250000X-0.639000X0.250000X-0.639000X0.250000X0.639000X0*%
%TD*%
%TA.AperFunction,SMDPad,CuDef*%
%ADD12RoundRect,0.250000X-0.639000X-0.250000X0.639000X-0.250000X0.639000X0.250000X-0.639000X0.250000X0*%
%TD*%
%TA.AperFunction,SMDPad,CuDef*%
%ADD13RoundRect,0.250000X0.250000X-0.639000X0.250000X0.639000X-0.250000X0.639000X-0.250000X-0.639000X0*%
%TD*%
%TA.AperFunction,SMDPad,CuDef*%
%ADD14RoundRect,0.127000X-1.016000X-0.127000X1.016000X-0.127000X1.016000X0.127000X-1.016000X0.127000X0*%
%TD*%
%TA.AperFunction,SMDPad,CuDef*%
%ADD15RoundRect,0.127000X1.016000X0.127000X-1.016000X0.127000X-1.016000X-0.127000X1.016000X-0.127000X0*%
%TD*%
%TA.AperFunction,SMDPad,CuDef*%
%ADD16RoundRect,0.225000X0.250000X-0.225000X0.250000X0.225000X-0.250000X0.225000X-0.250000X-0.225000X0*%
%TD*%
%TA.AperFunction,SMDPad,CuDef*%
%ADD17R,0.510000X0.700000*%
%TD*%
%TA.AperFunction,SMDPad,CuDef*%
%ADD18RoundRect,0.225000X-0.225000X-0.250000X0.225000X-0.250000X0.225000X0.250000X-0.225000X0.250000X0*%
%TD*%
%TA.AperFunction,ViaPad*%
%ADD19C,0.800000*%
%TD*%
%TA.AperFunction,Conductor*%
%ADD20C,0.250000*%
%TD*%
G04 APERTURE END LIST*
D10*
G36*
X154431148Y-93957377D02*
G01*
X154331148Y-94057377D01*
X154581148Y-94357377D01*
X154581148Y-95307377D01*
X154431148Y-95307377D01*
X154431148Y-94457377D01*
X154181148Y-94157377D01*
X154081148Y-94257377D01*
X154081148Y-93857377D01*
X154431148Y-93957377D01*
G37*
X154431148Y-93957377D02*
X154331148Y-94057377D01*
X154581148Y-94357377D01*
X154581148Y-95307377D01*
X154431148Y-95307377D01*
X154431148Y-94457377D01*
X154181148Y-94157377D01*
X154081148Y-94257377D01*
X154081148Y-93857377D01*
X154431148Y-93957377D01*
D11*
%TO.P,,B*%
%TO.N,B*%
X151511000Y-92862400D03*
%TD*%
D12*
%TO.P,,B*%
%TO.N,VCC5V*%
X147701000Y-99187000D03*
%TD*%
D11*
%TO.P,,1*%
%TO.N,GND*%
X153670000Y-92913200D03*
%TD*%
D13*
%TO.P,,1*%
%TO.N,A*%
X149352000Y-92811600D03*
%TD*%
D14*
%TO.P,,4*%
%TO.N,CE*%
X143500000Y-102000000D03*
%TD*%
D15*
%TO.P,,1*%
%TO.N,VCC5V*%
X143400000Y-91850000D03*
%TD*%
D16*
%TO.P,C2,5*%
%TO.N,VCC5V*%
X147777200Y-97472800D03*
%TO.P,C2,6*%
%TO.N,GND*%
X147777200Y-95922800D03*
%TD*%
D17*
%TO.P,U5,1*%
%TO.N,B*%
X152816600Y-95842600D03*
%TO.P,U5,2*%
%TO.N,A*%
X151866600Y-95842600D03*
%TO.P,U5,3*%
%TO.N,GND*%
X150916600Y-95842600D03*
%TO.P,U5,4*%
%TO.N,CE*%
X150916600Y-98162600D03*
%TO.P,U5,6*%
%TO.N,VCC5V*%
X152816600Y-98162600D03*
%TD*%
D16*
%TO.P,R1,2*%
%TO.N,VCC5V*%
X145000000Y-95750000D03*
%TO.P,R1,3*%
%TO.N,CE*%
X145000000Y-97300000D03*
%TD*%
D18*
%TO.P,C1,5*%
%TO.N,VCC5V*%
X146225000Y-94250000D03*
%TO.P,C1,6*%
%TO.N,GND*%
X147775000Y-94250000D03*
%TD*%
D19*
%TO.N,GND*%
X153670000Y-94610000D03*
%TD*%
D20*
%TO.N,GND*%
X149047200Y-95961200D02*
X149008800Y-95922800D01*
X147777200Y-95922800D02*
X147777200Y-94252200D01*
X153670000Y-96640000D02*
X153332800Y-96977200D01*
X149326600Y-96977200D02*
X149047200Y-96697800D01*
X153332800Y-96977200D02*
X149326600Y-96977200D01*
X147777200Y-94252200D02*
X147775000Y-94250000D01*
X153670000Y-92913200D02*
X153670000Y-94610000D01*
X147920200Y-94250000D02*
X147775000Y-94250000D01*
X149008800Y-95922800D02*
X147777200Y-95922800D01*
X153670000Y-94610000D02*
X153670000Y-96640000D01*
X150916600Y-96809600D02*
X150916600Y-95842600D01*
X149047200Y-96697800D02*
X149047200Y-95961200D01*
X147560000Y-94465000D02*
X147775000Y-94250000D01*
X149047200Y-95377000D02*
X147920200Y-94250000D01*
X149047200Y-95961200D02*
X149047200Y-95377000D01*
%TO.N,CE*%
X145000000Y-99300000D02*
X145000000Y-97300000D01*
X145000000Y-99300000D02*
X145000000Y-98800000D01*
X144775000Y-97550000D02*
X144800000Y-97575000D01*
X144500000Y-102000000D02*
X145000000Y-101500000D01*
X145687000Y-97300000D02*
X146634800Y-98247800D01*
X145000000Y-98800000D02*
X145000000Y-98500000D01*
X150831400Y-98247800D02*
X150916600Y-98162600D01*
X145000000Y-97300000D02*
X145687000Y-97300000D01*
X146634800Y-98247800D02*
X150831400Y-98247800D01*
X145000000Y-101500000D02*
X145000000Y-99300000D01*
X143500000Y-102000000D02*
X144500000Y-102000000D01*
X144750000Y-97550000D02*
X144775000Y-97550000D01*
%TO.N,A*%
X151358600Y-94894400D02*
X151866600Y-95402400D01*
X149352000Y-94640400D02*
X149606000Y-94894400D01*
X149352000Y-92811600D02*
X149352000Y-94640400D01*
X149606000Y-94894400D02*
X151358600Y-94894400D01*
X151866600Y-95402400D02*
X151866600Y-95842600D01*
%TO.N,B*%
X152816600Y-95396600D02*
X152816600Y-95842600D01*
X151434800Y-92862400D02*
X151434800Y-94014800D01*
X151434800Y-94014800D02*
X152816600Y-95396600D01*
%TO.N,VCC5V*%
X144950000Y-92770000D02*
X144950000Y-92975000D01*
X144950000Y-91850000D02*
X144950000Y-92770000D01*
X147701000Y-97549000D02*
X147777200Y-97472800D01*
X147701000Y-99187000D02*
X152577800Y-99187000D01*
X152667000Y-97472800D02*
X152816600Y-97622400D01*
X144950000Y-92975000D02*
X146225000Y-94250000D01*
X152816600Y-98948200D02*
X152816600Y-98162600D01*
X143550000Y-91850000D02*
X144950000Y-91850000D01*
X145000000Y-95750000D02*
X144750000Y-95500000D01*
X144950000Y-95700000D02*
X145000000Y-95750000D01*
X152816600Y-97622400D02*
X152816600Y-98162600D01*
X146225000Y-95920600D02*
X146225000Y-94250000D01*
X147777200Y-97472800D02*
X146225000Y-95920600D01*
X152577800Y-99187000D02*
X152816600Y-98948200D01*
X147777200Y-97472800D02*
X152667000Y-97472800D01*
X144950000Y-92770000D02*
X144950000Y-95700000D01*
X146000000Y-94025000D02*
X146225000Y-94250000D01*
%TD*%
M02*
