%TF.GenerationSoftware,KiCad,Pcbnew,(6.0.8)*%
%TF.CreationDate,2022-11-07T05:49:58-05:00*%
%TF.ProjectId,2-input-or-gate,322d696e-7075-4742-9d6f-722d67617465,rev?*%
%TF.SameCoordinates,Original*%
%TF.FileFunction,Legend,Top*%
%TF.FilePolarity,Positive*%
%FSLAX46Y46*%
G04 Gerber Fmt 4.6, Leading zero omitted, Abs format (unit mm)*
G04 Created by KiCad (PCBNEW (6.0.8)) date 2022-11-07 05:49:58*
%MOMM*%
%LPD*%
G01*
G04 APERTURE LIST*
%ADD10C,0.063500*%
%ADD11C,0.150000*%
%ADD12C,0.120000*%
G04 APERTURE END LIST*
D10*
X144485095Y-100019428D02*
X144739095Y-100019428D01*
X144739095Y-100116190D01*
X144727000Y-100140380D01*
X144714904Y-100152476D01*
X144690714Y-100164571D01*
X144654428Y-100164571D01*
X144630238Y-100152476D01*
X144618142Y-100140380D01*
X144606047Y-100116190D01*
X144606047Y-100019428D01*
X144485095Y-100273428D02*
X144654428Y-100273428D01*
X144739095Y-100273428D02*
X144727000Y-100261333D01*
X144714904Y-100273428D01*
X144727000Y-100285523D01*
X144739095Y-100273428D01*
X144714904Y-100273428D01*
X144654428Y-100394380D02*
X144485095Y-100394380D01*
X144630238Y-100394380D02*
X144642333Y-100406476D01*
X144654428Y-100430666D01*
X144654428Y-100466952D01*
X144642333Y-100491142D01*
X144618142Y-100503238D01*
X144485095Y-100503238D01*
X144714904Y-100805619D02*
X144727000Y-100817714D01*
X144739095Y-100841904D01*
X144739095Y-100902380D01*
X144727000Y-100926571D01*
X144714904Y-100938666D01*
X144690714Y-100950761D01*
X144666523Y-100950761D01*
X144630238Y-100938666D01*
X144485095Y-100793523D01*
X144485095Y-100950761D01*
X144630238Y-101095904D02*
X144642333Y-101071714D01*
X144654428Y-101059619D01*
X144678619Y-101047523D01*
X144690714Y-101047523D01*
X144714904Y-101059619D01*
X144727000Y-101071714D01*
X144739095Y-101095904D01*
X144739095Y-101144285D01*
X144727000Y-101168476D01*
X144714904Y-101180571D01*
X144690714Y-101192666D01*
X144678619Y-101192666D01*
X144654428Y-101180571D01*
X144642333Y-101168476D01*
X144630238Y-101144285D01*
X144630238Y-101095904D01*
X144618142Y-101071714D01*
X144606047Y-101059619D01*
X144581857Y-101047523D01*
X144533476Y-101047523D01*
X144509285Y-101059619D01*
X144497190Y-101071714D01*
X144485095Y-101095904D01*
X144485095Y-101144285D01*
X144497190Y-101168476D01*
X144509285Y-101180571D01*
X144533476Y-101192666D01*
X144581857Y-101192666D01*
X144606047Y-101180571D01*
X144618142Y-101168476D01*
X144630238Y-101144285D01*
X144485095Y-92619428D02*
X144739095Y-92619428D01*
X144739095Y-92716190D01*
X144727000Y-92740380D01*
X144714904Y-92752476D01*
X144690714Y-92764571D01*
X144654428Y-92764571D01*
X144630238Y-92752476D01*
X144618142Y-92740380D01*
X144606047Y-92716190D01*
X144606047Y-92619428D01*
X144485095Y-92873428D02*
X144654428Y-92873428D01*
X144739095Y-92873428D02*
X144727000Y-92861333D01*
X144714904Y-92873428D01*
X144727000Y-92885523D01*
X144739095Y-92873428D01*
X144714904Y-92873428D01*
X144654428Y-92994380D02*
X144485095Y-92994380D01*
X144630238Y-92994380D02*
X144642333Y-93006476D01*
X144654428Y-93030666D01*
X144654428Y-93066952D01*
X144642333Y-93091142D01*
X144618142Y-93103238D01*
X144485095Y-93103238D01*
X144714904Y-93405619D02*
X144727000Y-93417714D01*
X144739095Y-93441904D01*
X144739095Y-93502380D01*
X144727000Y-93526571D01*
X144714904Y-93538666D01*
X144690714Y-93550761D01*
X144666523Y-93550761D01*
X144630238Y-93538666D01*
X144485095Y-93393523D01*
X144485095Y-93550761D01*
X144739095Y-93708000D02*
X144739095Y-93732190D01*
X144727000Y-93756380D01*
X144714904Y-93768476D01*
X144690714Y-93780571D01*
X144642333Y-93792666D01*
X144581857Y-93792666D01*
X144533476Y-93780571D01*
X144509285Y-93768476D01*
X144497190Y-93756380D01*
X144485095Y-93732190D01*
X144485095Y-93708000D01*
X144497190Y-93683809D01*
X144509285Y-93671714D01*
X144533476Y-93659619D01*
X144581857Y-93647523D01*
X144642333Y-93647523D01*
X144690714Y-93659619D01*
X144714904Y-93671714D01*
X144727000Y-93683809D01*
X144739095Y-93708000D01*
X146761333Y-98660904D02*
X146846000Y-98914904D01*
X146930666Y-98660904D01*
X147160476Y-98890714D02*
X147148380Y-98902809D01*
X147112095Y-98914904D01*
X147087904Y-98914904D01*
X147051619Y-98902809D01*
X147027428Y-98878619D01*
X147015333Y-98854428D01*
X147003238Y-98806047D01*
X147003238Y-98769761D01*
X147015333Y-98721380D01*
X147027428Y-98697190D01*
X147051619Y-98673000D01*
X147087904Y-98660904D01*
X147112095Y-98660904D01*
X147148380Y-98673000D01*
X147160476Y-98685095D01*
X147414476Y-98890714D02*
X147402380Y-98902809D01*
X147366095Y-98914904D01*
X147341904Y-98914904D01*
X147305619Y-98902809D01*
X147281428Y-98878619D01*
X147269333Y-98854428D01*
X147257238Y-98806047D01*
X147257238Y-98769761D01*
X147269333Y-98721380D01*
X147281428Y-98697190D01*
X147305619Y-98673000D01*
X147341904Y-98660904D01*
X147366095Y-98660904D01*
X147402380Y-98673000D01*
X147414476Y-98685095D01*
X151273000Y-94693523D02*
X151260904Y-94717714D01*
X151260904Y-94754000D01*
X151273000Y-94790285D01*
X151297190Y-94814476D01*
X151321380Y-94826571D01*
X151369761Y-94838666D01*
X151406047Y-94838666D01*
X151454428Y-94826571D01*
X151478619Y-94814476D01*
X151502809Y-94790285D01*
X151514904Y-94754000D01*
X151514904Y-94729809D01*
X151502809Y-94693523D01*
X151490714Y-94681428D01*
X151406047Y-94681428D01*
X151406047Y-94729809D01*
X151514904Y-94572571D02*
X151260904Y-94572571D01*
X151514904Y-94427428D01*
X151260904Y-94427428D01*
X151514904Y-94306476D02*
X151260904Y-94306476D01*
X151260904Y-94246000D01*
X151273000Y-94209714D01*
X151297190Y-94185523D01*
X151321380Y-94173428D01*
X151369761Y-94161333D01*
X151406047Y-94161333D01*
X151454428Y-94173428D01*
X151478619Y-94185523D01*
X151502809Y-94209714D01*
X151514904Y-94246000D01*
X151514904Y-94306476D01*
X149339523Y-94242333D02*
X149460476Y-94242333D01*
X149315333Y-94314904D02*
X149400000Y-94060904D01*
X149484666Y-94314904D01*
X150418142Y-94181857D02*
X150454428Y-94193952D01*
X150466523Y-94206047D01*
X150478619Y-94230238D01*
X150478619Y-94266523D01*
X150466523Y-94290714D01*
X150454428Y-94302809D01*
X150430238Y-94314904D01*
X150333476Y-94314904D01*
X150333476Y-94060904D01*
X150418142Y-94060904D01*
X150442333Y-94073000D01*
X150454428Y-94085095D01*
X150466523Y-94109285D01*
X150466523Y-94133476D01*
X150454428Y-94157666D01*
X150442333Y-94169761D01*
X150418142Y-94181857D01*
X150333476Y-94181857D01*
%TO.C,R2*%
X146714904Y-97017333D02*
X146593952Y-97102000D01*
X146714904Y-97162476D02*
X146460904Y-97162476D01*
X146460904Y-97065714D01*
X146473000Y-97041523D01*
X146485095Y-97029428D01*
X146509285Y-97017333D01*
X146545571Y-97017333D01*
X146569761Y-97029428D01*
X146581857Y-97041523D01*
X146593952Y-97065714D01*
X146593952Y-97162476D01*
X146485095Y-96920571D02*
X146473000Y-96908476D01*
X146460904Y-96884285D01*
X146460904Y-96823809D01*
X146473000Y-96799619D01*
X146485095Y-96787523D01*
X146509285Y-96775428D01*
X146533476Y-96775428D01*
X146569761Y-96787523D01*
X146714904Y-96932666D01*
X146714904Y-96775428D01*
D11*
%TO.C,*%
D10*
%TO.C,C2*%
X149157666Y-99390714D02*
X149145571Y-99402809D01*
X149109285Y-99414904D01*
X149085095Y-99414904D01*
X149048809Y-99402809D01*
X149024619Y-99378619D01*
X149012523Y-99354428D01*
X149000428Y-99306047D01*
X149000428Y-99269761D01*
X149012523Y-99221380D01*
X149024619Y-99197190D01*
X149048809Y-99173000D01*
X149085095Y-99160904D01*
X149109285Y-99160904D01*
X149145571Y-99173000D01*
X149157666Y-99185095D01*
X149254428Y-99185095D02*
X149266523Y-99173000D01*
X149290714Y-99160904D01*
X149351190Y-99160904D01*
X149375380Y-99173000D01*
X149387476Y-99185095D01*
X149399571Y-99209285D01*
X149399571Y-99233476D01*
X149387476Y-99269761D01*
X149242333Y-99414904D01*
X149399571Y-99414904D01*
%TO.C,R1*%
X145114904Y-96542333D02*
X144993952Y-96627000D01*
X145114904Y-96687476D02*
X144860904Y-96687476D01*
X144860904Y-96590714D01*
X144873000Y-96566523D01*
X144885095Y-96554428D01*
X144909285Y-96542333D01*
X144945571Y-96542333D01*
X144969761Y-96554428D01*
X144981857Y-96566523D01*
X144993952Y-96590714D01*
X144993952Y-96687476D01*
X145114904Y-96300428D02*
X145114904Y-96445571D01*
X145114904Y-96373000D02*
X144860904Y-96373000D01*
X144897190Y-96397190D01*
X144921380Y-96421380D01*
X144933476Y-96445571D01*
%TO.C,C1*%
X146957666Y-94290714D02*
X146945571Y-94302809D01*
X146909285Y-94314904D01*
X146885095Y-94314904D01*
X146848809Y-94302809D01*
X146824619Y-94278619D01*
X146812523Y-94254428D01*
X146800428Y-94206047D01*
X146800428Y-94169761D01*
X146812523Y-94121380D01*
X146824619Y-94097190D01*
X146848809Y-94073000D01*
X146885095Y-94060904D01*
X146909285Y-94060904D01*
X146945571Y-94073000D01*
X146957666Y-94085095D01*
X147199571Y-94314904D02*
X147054428Y-94314904D01*
X147127000Y-94314904D02*
X147127000Y-94060904D01*
X147102809Y-94097190D01*
X147078619Y-94121380D01*
X147054428Y-94133476D01*
D12*
%TO.C,R2*%
X147110000Y-96834420D02*
X147110000Y-97115580D01*
X146090000Y-96834420D02*
X146090000Y-97115580D01*
%TO.C,U5*%
X150128489Y-96291512D02*
G75*
G03*
X150128489Y-96291512I-98489J0D01*
G01*
X150700000Y-97600000D02*
X150700000Y-95300000D01*
X147500000Y-96000000D02*
X147500000Y-97600000D01*
%TO.C,C2*%
X149059420Y-99810000D02*
X149340580Y-99810000D01*
X149059420Y-98790000D02*
X149340580Y-98790000D01*
%TO.C,R1*%
X144490000Y-96665580D02*
X144490000Y-96384420D01*
X145510000Y-96665580D02*
X145510000Y-96384420D01*
%TO.C,C1*%
X146859420Y-94760000D02*
X147140580Y-94760000D01*
X146859420Y-93740000D02*
X147140580Y-93740000D01*
%TD*%
M02*
