%TF.GenerationSoftware,KiCad,Pcbnew,(6.0.8)*%
%TF.CreationDate,2022-12-22T05:05:54-05:00*%
%TF.ProjectId,2-input-or-gate,322d696e-7075-4742-9d6f-722d67617465,rev?*%
%TF.SameCoordinates,Original*%
%TF.FileFunction,Legend,Top*%
%TF.FilePolarity,Positive*%
%FSLAX46Y46*%
G04 Gerber Fmt 4.6, Leading zero omitted, Abs format (unit mm)*
G04 Created by KiCad (PCBNEW (6.0.8)) date 2022-12-22 05:05:54*
%MOMM*%
%LPD*%
G01*
G04 APERTURE LIST*
%ADD10C,0.063500*%
%ADD11C,0.150000*%
%ADD12C,0.120000*%
G04 APERTURE END LIST*
D10*
X149930952Y-94243333D02*
X150169047Y-94243333D01*
X149883333Y-94386190D02*
X150050000Y-93886190D01*
X150216666Y-94386190D01*
X144485095Y-92619428D02*
X144739095Y-92619428D01*
X144739095Y-92716190D01*
X144727000Y-92740380D01*
X144714904Y-92752476D01*
X144690714Y-92764571D01*
X144654428Y-92764571D01*
X144630238Y-92752476D01*
X144618142Y-92740380D01*
X144606047Y-92716190D01*
X144606047Y-92619428D01*
X144485095Y-92873428D02*
X144654428Y-92873428D01*
X144739095Y-92873428D02*
X144727000Y-92861333D01*
X144714904Y-92873428D01*
X144727000Y-92885523D01*
X144739095Y-92873428D01*
X144714904Y-92873428D01*
X144654428Y-92994380D02*
X144485095Y-92994380D01*
X144630238Y-92994380D02*
X144642333Y-93006476D01*
X144654428Y-93030666D01*
X144654428Y-93066952D01*
X144642333Y-93091142D01*
X144618142Y-93103238D01*
X144485095Y-93103238D01*
X144714904Y-93405619D02*
X144727000Y-93417714D01*
X144739095Y-93441904D01*
X144739095Y-93502380D01*
X144727000Y-93526571D01*
X144714904Y-93538666D01*
X144690714Y-93550761D01*
X144666523Y-93550761D01*
X144630238Y-93538666D01*
X144485095Y-93393523D01*
X144485095Y-93550761D01*
X144739095Y-93708000D02*
X144739095Y-93732190D01*
X144727000Y-93756380D01*
X144714904Y-93768476D01*
X144690714Y-93780571D01*
X144642333Y-93792666D01*
X144581857Y-93792666D01*
X144533476Y-93780571D01*
X144509285Y-93768476D01*
X144497190Y-93756380D01*
X144485095Y-93732190D01*
X144485095Y-93708000D01*
X144497190Y-93683809D01*
X144509285Y-93671714D01*
X144533476Y-93659619D01*
X144581857Y-93647523D01*
X144642333Y-93647523D01*
X144690714Y-93659619D01*
X144714904Y-93671714D01*
X144727000Y-93683809D01*
X144739095Y-93708000D01*
X144485095Y-100019428D02*
X144739095Y-100019428D01*
X144739095Y-100116190D01*
X144727000Y-100140380D01*
X144714904Y-100152476D01*
X144690714Y-100164571D01*
X144654428Y-100164571D01*
X144630238Y-100152476D01*
X144618142Y-100140380D01*
X144606047Y-100116190D01*
X144606047Y-100019428D01*
X144485095Y-100273428D02*
X144654428Y-100273428D01*
X144739095Y-100273428D02*
X144727000Y-100261333D01*
X144714904Y-100273428D01*
X144727000Y-100285523D01*
X144739095Y-100273428D01*
X144714904Y-100273428D01*
X144654428Y-100394380D02*
X144485095Y-100394380D01*
X144630238Y-100394380D02*
X144642333Y-100406476D01*
X144654428Y-100430666D01*
X144654428Y-100466952D01*
X144642333Y-100491142D01*
X144618142Y-100503238D01*
X144485095Y-100503238D01*
X144714904Y-100805619D02*
X144727000Y-100817714D01*
X144739095Y-100841904D01*
X144739095Y-100902380D01*
X144727000Y-100926571D01*
X144714904Y-100938666D01*
X144690714Y-100950761D01*
X144666523Y-100950761D01*
X144630238Y-100938666D01*
X144485095Y-100793523D01*
X144485095Y-100950761D01*
X144630238Y-101095904D02*
X144642333Y-101071714D01*
X144654428Y-101059619D01*
X144678619Y-101047523D01*
X144690714Y-101047523D01*
X144714904Y-101059619D01*
X144727000Y-101071714D01*
X144739095Y-101095904D01*
X144739095Y-101144285D01*
X144727000Y-101168476D01*
X144714904Y-101180571D01*
X144690714Y-101192666D01*
X144678619Y-101192666D01*
X144654428Y-101180571D01*
X144642333Y-101168476D01*
X144630238Y-101144285D01*
X144630238Y-101095904D01*
X144618142Y-101071714D01*
X144606047Y-101059619D01*
X144581857Y-101047523D01*
X144533476Y-101047523D01*
X144509285Y-101059619D01*
X144497190Y-101071714D01*
X144485095Y-101095904D01*
X144485095Y-101144285D01*
X144497190Y-101168476D01*
X144509285Y-101180571D01*
X144533476Y-101192666D01*
X144581857Y-101192666D01*
X144606047Y-101180571D01*
X144618142Y-101168476D01*
X144630238Y-101144285D01*
X152495714Y-94154285D02*
X152567142Y-94178095D01*
X152590952Y-94201904D01*
X152614761Y-94249523D01*
X152614761Y-94320952D01*
X152590952Y-94368571D01*
X152567142Y-94392380D01*
X152519523Y-94416190D01*
X152329047Y-94416190D01*
X152329047Y-93916190D01*
X152495714Y-93916190D01*
X152543333Y-93940000D01*
X152567142Y-93963809D01*
X152590952Y-94011428D01*
X152590952Y-94059047D01*
X152567142Y-94106666D01*
X152543333Y-94130476D01*
X152495714Y-94154285D01*
X152329047Y-94154285D01*
X145796190Y-99776666D02*
X146296190Y-99610000D01*
X145796190Y-99443333D01*
X146248571Y-98990952D02*
X146272380Y-99014761D01*
X146296190Y-99086190D01*
X146296190Y-99133809D01*
X146272380Y-99205238D01*
X146224761Y-99252857D01*
X146177142Y-99276666D01*
X146081904Y-99300476D01*
X146010476Y-99300476D01*
X145915238Y-99276666D01*
X145867619Y-99252857D01*
X145820000Y-99205238D01*
X145796190Y-99133809D01*
X145796190Y-99086190D01*
X145820000Y-99014761D01*
X145843809Y-98990952D01*
X146248571Y-98490952D02*
X146272380Y-98514761D01*
X146296190Y-98586190D01*
X146296190Y-98633809D01*
X146272380Y-98705238D01*
X146224761Y-98752857D01*
X146177142Y-98776666D01*
X146081904Y-98800476D01*
X146010476Y-98800476D01*
X145915238Y-98776666D01*
X145867619Y-98752857D01*
X145820000Y-98705238D01*
X145796190Y-98633809D01*
X145796190Y-98586190D01*
X145820000Y-98514761D01*
X145843809Y-98490952D01*
X154050000Y-96480952D02*
X154026190Y-96528571D01*
X154026190Y-96600000D01*
X154050000Y-96671428D01*
X154097619Y-96719047D01*
X154145238Y-96742857D01*
X154240476Y-96766666D01*
X154311904Y-96766666D01*
X154407142Y-96742857D01*
X154454761Y-96719047D01*
X154502380Y-96671428D01*
X154526190Y-96600000D01*
X154526190Y-96552380D01*
X154502380Y-96480952D01*
X154478571Y-96457142D01*
X154311904Y-96457142D01*
X154311904Y-96552380D01*
X154526190Y-96242857D02*
X154026190Y-96242857D01*
X154526190Y-95957142D01*
X154026190Y-95957142D01*
X154526190Y-95719047D02*
X154026190Y-95719047D01*
X154026190Y-95600000D01*
X154050000Y-95528571D01*
X154097619Y-95480952D01*
X154145238Y-95457142D01*
X154240476Y-95433333D01*
X154311904Y-95433333D01*
X154407142Y-95457142D01*
X154454761Y-95480952D01*
X154502380Y-95528571D01*
X154526190Y-95600000D01*
X154526190Y-95719047D01*
D11*
%TO.C,*%
D10*
%TO.C,C2*%
X147867914Y-96740133D02*
X147880009Y-96752228D01*
X147892104Y-96788514D01*
X147892104Y-96812704D01*
X147880009Y-96848990D01*
X147855819Y-96873180D01*
X147831628Y-96885276D01*
X147783247Y-96897371D01*
X147746961Y-96897371D01*
X147698580Y-96885276D01*
X147674390Y-96873180D01*
X147650200Y-96848990D01*
X147638104Y-96812704D01*
X147638104Y-96788514D01*
X147650200Y-96752228D01*
X147662295Y-96740133D01*
X147662295Y-96643371D02*
X147650200Y-96631276D01*
X147638104Y-96607085D01*
X147638104Y-96546609D01*
X147650200Y-96522419D01*
X147662295Y-96510323D01*
X147686485Y-96498228D01*
X147710676Y-96498228D01*
X147746961Y-96510323D01*
X147892104Y-96655466D01*
X147892104Y-96498228D01*
%TO.C,R1*%
X145114904Y-96542333D02*
X144993952Y-96627000D01*
X145114904Y-96687476D02*
X144860904Y-96687476D01*
X144860904Y-96590714D01*
X144873000Y-96566523D01*
X144885095Y-96554428D01*
X144909285Y-96542333D01*
X144945571Y-96542333D01*
X144969761Y-96554428D01*
X144981857Y-96566523D01*
X144993952Y-96590714D01*
X144993952Y-96687476D01*
X145114904Y-96300428D02*
X145114904Y-96445571D01*
X145114904Y-96373000D02*
X144860904Y-96373000D01*
X144897190Y-96397190D01*
X144921380Y-96421380D01*
X144933476Y-96445571D01*
%TO.C,C1*%
X146957666Y-94290714D02*
X146945571Y-94302809D01*
X146909285Y-94314904D01*
X146885095Y-94314904D01*
X146848809Y-94302809D01*
X146824619Y-94278619D01*
X146812523Y-94254428D01*
X146800428Y-94206047D01*
X146800428Y-94169761D01*
X146812523Y-94121380D01*
X146824619Y-94097190D01*
X146848809Y-94073000D01*
X146885095Y-94060904D01*
X146909285Y-94060904D01*
X146945571Y-94073000D01*
X146957666Y-94085095D01*
X147199571Y-94314904D02*
X147054428Y-94314904D01*
X147127000Y-94314904D02*
X147127000Y-94060904D01*
X147102809Y-94097190D01*
X147078619Y-94121380D01*
X147054428Y-94133476D01*
D12*
%TO.C,C2*%
X147267200Y-96838380D02*
X147267200Y-96557220D01*
X148287200Y-96838380D02*
X148287200Y-96557220D01*
%TO.C,U5*%
X150266600Y-96202600D02*
X150266600Y-97802600D01*
X153466600Y-97802600D02*
X153466600Y-95502600D01*
X152895089Y-96494112D02*
G75*
G03*
X152895089Y-96494112I-98489J0D01*
G01*
%TO.C,R1*%
X145510000Y-96665580D02*
X145510000Y-96384420D01*
X144490000Y-96665580D02*
X144490000Y-96384420D01*
%TO.C,C1*%
X146859420Y-93740000D02*
X147140580Y-93740000D01*
X146859420Y-94760000D02*
X147140580Y-94760000D01*
%TD*%
M02*
