%TF.GenerationSoftware,KiCad,Pcbnew,(6.0.8)*%
%TF.CreationDate,2022-12-22T05:05:52-05:00*%
%TF.ProjectId,2-input-or-gate,322d696e-7075-4742-9d6f-722d67617465,rev?*%
%TF.SameCoordinates,Original*%
%TF.FileFunction,Drillmap*%
%TF.FilePolarity,Positive*%
%FSLAX45Y45*%
G04 Gerber Fmt 4.5, Leading zero omitted, Abs format (unit mm)*
G04 Created by KiCad (PCBNEW (6.0.8)) date 2022-12-22 05:05:52*
%MOMM*%
%LPD*%
G01*
G04 APERTURE LIST*
%ADD10C,0.100000*%
%ADD11C,0.200000*%
G04 APERTURE END LIST*
D10*
X14552000Y-10246000D02*
X14220300Y-10245000D01*
X14859000Y-9321800D02*
X14859000Y-9169400D01*
X14630400Y-9321800D02*
X14859000Y-9321800D01*
X14630400Y-9136000D02*
X14630400Y-9321800D01*
X15478760Y-10007600D02*
X14554200Y-10007600D01*
X14220000Y-9136000D02*
X14630400Y-9136000D01*
X14554200Y-10007600D02*
X14555000Y-10242000D01*
X14430000Y-10150000D02*
X14430000Y-9230000D01*
X14430000Y-9230000D02*
X14220000Y-9230000D01*
X14219700Y-10150000D02*
X14430000Y-10150000D01*
X14859000Y-9169400D02*
X15478760Y-9169400D01*
X14220300Y-10245000D02*
X14219700Y-10150000D01*
X14220000Y-9230000D02*
X14220000Y-9136000D01*
X15478760Y-10007600D02*
X15478760Y-9169400D01*
D11*
X14472319Y-10561476D02*
X14472319Y-10361476D01*
X14519938Y-10361476D01*
X14548509Y-10371000D01*
X14567557Y-10390048D01*
X14577081Y-10409095D01*
X14586605Y-10447190D01*
X14586605Y-10475762D01*
X14577081Y-10513857D01*
X14567557Y-10532905D01*
X14548509Y-10551952D01*
X14519938Y-10561476D01*
X14472319Y-10561476D01*
X14672319Y-10561476D02*
X14672319Y-10428143D01*
X14672319Y-10466238D02*
X14681843Y-10447190D01*
X14691367Y-10437667D01*
X14710414Y-10428143D01*
X14729462Y-10428143D01*
X14796128Y-10561476D02*
X14796128Y-10428143D01*
X14796128Y-10361476D02*
X14786605Y-10371000D01*
X14796128Y-10380524D01*
X14805652Y-10371000D01*
X14796128Y-10361476D01*
X14796128Y-10380524D01*
X14919938Y-10561476D02*
X14900890Y-10551952D01*
X14891367Y-10532905D01*
X14891367Y-10361476D01*
X15024700Y-10561476D02*
X15005652Y-10551952D01*
X14996128Y-10532905D01*
X14996128Y-10361476D01*
X15253271Y-10561476D02*
X15253271Y-10361476D01*
X15319938Y-10504333D01*
X15386605Y-10361476D01*
X15386605Y-10561476D01*
X15567557Y-10561476D02*
X15567557Y-10456714D01*
X15558033Y-10437667D01*
X15538986Y-10428143D01*
X15500890Y-10428143D01*
X15481843Y-10437667D01*
X15567557Y-10551952D02*
X15548509Y-10561476D01*
X15500890Y-10561476D01*
X15481843Y-10551952D01*
X15472319Y-10532905D01*
X15472319Y-10513857D01*
X15481843Y-10494810D01*
X15500890Y-10485286D01*
X15548509Y-10485286D01*
X15567557Y-10475762D01*
X15662795Y-10428143D02*
X15662795Y-10628143D01*
X15662795Y-10437667D02*
X15681843Y-10428143D01*
X15719938Y-10428143D01*
X15738986Y-10437667D01*
X15748509Y-10447190D01*
X15758033Y-10466238D01*
X15758033Y-10523381D01*
X15748509Y-10542429D01*
X15738986Y-10551952D01*
X15719938Y-10561476D01*
X15681843Y-10561476D01*
X15662795Y-10551952D01*
X15843748Y-10542429D02*
X15853271Y-10551952D01*
X15843748Y-10561476D01*
X15834224Y-10551952D01*
X15843748Y-10542429D01*
X15843748Y-10561476D01*
X15843748Y-10437667D02*
X15853271Y-10447190D01*
X15843748Y-10456714D01*
X15834224Y-10447190D01*
X15843748Y-10437667D01*
X15843748Y-10456714D01*
M02*
